/* XPM */
static char * tongue_xpm[] = {
"64 64 264 2",
"  	c None",
". 	c #000000",
"+ 	c #1C1C00",
"@ 	c #3D3D00",
"# 	c #585800",
"$ 	c #737300",
"% 	c #8F8F00",
"& 	c #AAAA00",
"* 	c #B7B700",
"= 	c #9E9E00",
"- 	c #838300",
"; 	c #676700",
"> 	c #4C4C00",
", 	c #313100",
"' 	c #0A0A00",
") 	c #323200",
"! 	c #D4D400",
"~ 	c #FFFF00",
"{ 	c #F6F600",
"] 	c #B0B000",
"^ 	c #5F5F00",
"/ 	c #131300",
"( 	c #010100",
"_ 	c #252500",
": 	c #909000",
"< 	c #E1E100",
"[ 	c #FCFC00",
"} 	c #BEBE00",
"| 	c #656500",
"1 	c #040400",
"2 	c #141400",
"3 	c #949400",
"4 	c #FBFB00",
"5 	c #DADA00",
"6 	c #535300",
"7 	c #090900",
"8 	c #7B7B00",
"9 	c #F2F200",
"0 	c #C7C700",
"a 	c #3C3C00",
"b 	c #959500",
"c 	c #545400",
"d 	c #F5F500",
"e 	c #121200",
"f 	c #7E7E00",
"g 	c #FEFE00",
"h 	c #A5A500",
"i 	c #BFBF00",
"j 	c #DDDD00",
"k 	c #2B2B00",
"l 	c #A7A700",
"m 	c #FDFD00",
"n 	c #1E1E00",
"o 	c #999900",
"p 	c #484800",
"q 	c #939300",
"r 	c #BABA00",
"s 	c #F0F000",
"t 	c #E4E400",
"u 	c #828200",
"v 	c #F4F400",
"w 	c #2F2F00",
"x 	c #636300",
"y 	c #595900",
"z 	c #5C5C00",
"A 	c #C2C200",
"B 	c #171700",
"C 	c #4D4D00",
"D 	c #F9F900",
"E 	c #DFDF00",
"F 	c #3A3A00",
"G 	c #EFEF00",
"H 	c #080800",
"I 	c #BDBD00",
"J 	c #929200",
"K 	c #050500",
"L 	c #767600",
"M 	c #1B1B00",
"N 	c #E7E700",
"O 	c #989800",
"P 	c #202000",
"Q 	c #5D5D00",
"R 	c #0D0D00",
"S 	c #ADAD00",
"T 	c #565600",
"U 	c #303000",
"V 	c #2A2A00",
"W 	c #D8D800",
"X 	c #3E3E00",
"Y 	c #373700",
"Z 	c #262600",
"` 	c #272700",
" .	c #646400",
"..	c #5B5B00",
"+.	c #3B3B00",
"@.	c #6A6A00",
"#.	c #C8C800",
"$.	c #C1C100",
"%.	c #7D7D00",
"&.	c #424200",
"*.	c #555500",
"=.	c #616100",
"-.	c #6D6D00",
";.	c #7A7A00",
">.	c #8D8D00",
",.	c #A0A000",
"'.	c #D9D900",
").	c #D5D500",
"!.	c #383800",
"~.	c #CBCB00",
"{.	c #868600",
"].	c #1A1A00",
"^.	c #666600",
"/.	c #222200",
"(.	c #B3B300",
"_.	c #707000",
":.	c #A3A300",
"<.	c #8E8E00",
"[.	c #B6B600",
"}.	c #A1A100",
"|.	c #414100",
"1.	c #060600",
"2.	c #777700",
"3.	c #C3C300",
"4.	c #464600",
"5.	c #626200",
"6.	c #161600",
"7.	c #727200",
"8.	c #020200",
"9.	c #848400",
"0.	c #6E6E00",
"a.	c #EDED00",
"b.	c #AFAF00",
"c.	c #242400",
"d.	c #4F4F00",
"e.	c #A8A800",
"f.	c #A6A600",
"g.	c #070700",
"h.	c #E9E900",
"i.	c #CDCD00",
"j.	c #717100",
"k.	c #3F3F00",
"l.	c #969600",
"m.	c #1F1F00",
"n.	c #343400",
"o.	c #212100",
"p.	c #D6D600",
"q.	c #393900",
"r.	c #E6E600",
"s.	c #C9C900",
"t.	c #696900",
"u.	c #D1D100",
"v.	c #7F7F00",
"w.	c #4A4A00",
"x.	c #B4B400",
"y.	c #0B0B00",
"z.	c #EBEB00",
"A.	c #EAEA00",
"B.	c #9B9B00",
"C.	c #292900",
"D.	c #ACAC00",
"E.	c #757500",
"F.	c #474700",
"G.	c #F1F100",
"H.	c #E8E800",
"I.	c #3E3B00",
"J.	c #4E4E00",
"K.	c #C6C600",
"L.	c #150C00",
"M.	c #1B1A00",
"N.	c #750000",
"O.	c #AF0000",
"P.	c #160900",
"Q.	c #8D8A00",
"R.	c #272600",
"S.	c #420000",
"T.	c #FC0000",
"U.	c #FF0000",
"V.	c #DF0000",
"W.	c #2F0B00",
"X.	c #605800",
"Y.	c #504D00",
"Z.	c #050000",
"`.	c #4B0000",
" +	c #F60000",
".+	c #F40000",
"++	c #4F0B00",
"@+	c #554C00",
"#+	c #444400",
"$+	c #333000",
"%+	c #130000",
"&+	c #CA0000",
"*+	c #610000",
"=+	c #3B0000",
"-+	c #F70000",
";+	c #1E0A00",
">+	c #D7D700",
",+	c #C5C500",
"'+	c #1D0000",
")+	c #DA0000",
"!+	c #5B0000",
"~+	c #5F0000",
"{+	c #A60000",
"]+	c #372B00",
"^+	c #575700",
"/+	c #1F1E00",
"(+	c #1E0900",
"_+	c #C50000",
":+	c #320000",
"<+	c #920000",
"[+	c #FE0000",
"}+	c #180900",
"|+	c #E0E000",
"1+	c #F7F700",
"2+	c #140A00",
"3+	c #C70000",
"4+	c #D80000",
"5+	c #160000",
"6+	c #FD0000",
"7+	c #1F0C00",
"8+	c #505000",
"9+	c #D2D200",
"0+	c #B5B500",
"a+	c #747400",
"b+	c #E3E300",
"c+	c #DE0000",
"d+	c #490000",
"e+	c #DBDB00",
"f+	c #C4C400",
"g+	c #191900",
"h+	c #CACA00",
"i+	c #888400",
"j+	c #3C0B00",
"k+	c #1C0B00",
"l+	c #525200",
"m+	c #3E3400",
"n+	c #7F0400",
"o+	c #F20000",
"p+	c #080400",
"q+	c #201700",
"r+	c #5D0700",
"s+	c #C00000",
"t+	c #910000",
"u+	c #3D0900",
"v+	c #625900",
"w+	c #878700",
"x+	c #716B00",
"y+	c #2F2200",
"z+	c #2D1F00",
"A+	c #979700",
"B+	c #EEEE00",
"C+	c #686800",
"D+	c #4B4B00",
"E+	c #DEDE00",
"F+	c #515100",
"G+	c #B9B900",
"H+	c #F3F300",
"I+	c #181800",
"J+	c #F8F800",
"K+	c #919100",
"L+	c #030300",
"M+	c #888800",
"N+	c #CECE00",
"O+	c #7C7C00",
"                                                                                                                                ",
"                                                              . . .                                                             ",
"                                                . . . . . . . . . . . . . . . .                                                 ",
"                                          . . . . . + @ # $ % & * = - ; > , ' . . . .                                           ",
"                                      . . . . ) - ! ~ ~ ~ ~ ~ ~ ~ ~ ~ ~ ~ ~ { ] ^ / . . (                                       ",
"                                  . . . _ : < ~ ~ ~ ~ ~ ~ ~ ~ ~ ~ ~ ~ ~ ~ ~ ~ ~ ~ [ } | 1 . .                                   ",
"                              . ( . 2 3 4 ~ ~ ~ ~ ~ ~ ~ ~ ~ ~ ~ ~ ~ ~ ~ ~ ~ ~ ~ ~ ~ ~ ~ 5 6 . . .                               ",
"                            . . 7 8 9 ~ ~ ~ ~ ~ ~ ~ ~ ~ ~ ~ ~ ~ ~ ~ ~ ~ ~ ~ ~ ~ ~ ~ ~ ~ ~ ~ 0 a . .                             ",
"                          . . ) < ~ ~ ~ ~ ~ ~ ~ ~ ~ ~ ~ ~ ~ ~ ~ ~ ~ ~ ~ ~ ~ ~ ~ ~ ~ ~ ~ ~ ~ ~ ~ b 1 . .                         ",
"                        ( . c d ~ ~ ~ ~ ~ ~ ~ ~ ~ ~ ~ ~ ~ ~ ~ ~ ~ ~ ~ ~ ~ ~ ~ ~ ~ ~ ~ ~ ~ ~ ~ ~ ~ } e . .                       ",
"                      . . f g ~ ~ ~ ~ ~ ~ ~ ~ ~ ~ ~ ~ ~ ~ ~ ~ h i ~ ~ ~ ~ ~ ~ ~ ~ ~ ~ ~ ~ ~ ~ ~ ~ ~ j k . .                     ",
"                    ( 1 l ~ ~ ~ ~ ~ ~ ~ ~ ~ ~ ~ ~ ~ ~ ~ ~ ~ m n o ~ ~ ~ ~ ~ ~ ~ ~ ~ ~ ~ ~ ~ ~ ~ ~ ~ ~ 9 p . .                   ",
"                  ( . q ~ ~ ~ ~ ~ ~ ~ ~ ~ ~ ~ ~ ~ ~ ~ ~ ~ ~ r 7 s ~ ~ t u ~ ~ ~ ~ ~ ~ ~ ~ ~ ~ ~ ~ ~ ~ ~ v w . .                 ",
"                . . x ~ ~ ~ ~ ~ ~ ~ ~ ~ ~ ~ ~ ~ ~ ~ ~ ~ ~ ~ y z ~ ~ A B C D ~ ~ ~ ~ ~ ~ ~ ~ ~ ~ ~ ~ ~ ~ ~ E / .                 ",
"              . . F D ~ ~ ~ ~ ~ ~ ~ ~ ~ ~ ~ ~ ~ ~ ~ ~ ~ ~ G H I ~ J K L [ ~ ~ ~ ~ ~ ~ ~ ~ ~ ~ ~ ~ ~ ~ ~ ~ ~ i 1 (               ",
"              . M N ~ ~ ~ ~ ~ ~ ~ ~ ~ ~ ~ ~ ~ ~ ~ ~ ~ ~ ~ O P d Q R S ~ ~ ~ ~ ~ ~ ~ ~ ~ ~ ~ ~ ~ ~ ~ ~ ~ ~ ~ ~ q . .             ",
"            . . & ~ ~ ~ ~ ~ ~ ~ ~ ~ ~ ~ ~ ~ ~ ~ ~ ~ ~ ~ ~ T | U V W ~ ~ ~ ~ ~ ~ ~ ~ ~ ~ ~ ~ ~ ~ ~ ~ ~ ~ ~ ~ ~ ~ X .             ",
"            . Y ~ ~ ~ ~ ~ ~ ~ ~ ~ ~ ~ ~ ~ ~ ~ ~ ~ ~ ~ ~ ~ B Z `  ...> +.k @.~ ~ ~ ~ ~ ~ ~ ~ ~ ~ ~ ~ ~ ~ ~ ~ ~ ~ #.. .           ",
"          . . $.~ ~ ~ ~ ~ ~ ~ ~ ~ ~ ~ ~ ~ ~ ~ ~ ~ ~ ~ ~ m %.&.*.=.-.;.>.,.#.~ ~ ~ ~ ~ ~ ~ ~ ~ ~ ~ ~ ~ ~ ~ ~ ~ ~ ~ 6 .           ",
"          . C ~ ~ ~ ~ ~ ~ ~ ~ ~ ~ ~ ~ ~ ~ ~ ~ ~ ~ ~ ~ ~ ~ ~ ~ ~ ~ ~ ~ ~ ~ ~ ~ ~ ~ ~ ~ ~ ~ ~ ~ ~ ~ ~ ~ ~ ~ ~ ~ ~ ~ '.1 (         ",
"        . ( ).~ ~ ~ ~ ~ ~ ~ ~ ~ ~ ~ ~ ~ ~ ~ ~ ~ ~ ~ ~ ~ ~ ~ ~ ~ ~ ~ ~ ~ ~ ~ ~ ~ ~ ~ ~ ~ ~ ~ ~ ~ ~ ~ ~ ~ ~ ~ ~ ~ ~ ~ ; .         ",
"        . !.~ ~ ~ ~ ~ ~ ~ ~ ~ ~ ~ ~ ~ ~ ~ ~ ~ ~ ~ ~ ~ ~ ~ ~ ~ ~ ~ ~ ~ ~ ~ ~ ~ ~ ~ ~ ~ ~ ~ ~ ~ ~ ~ ~ ~ ~ ~ ~ ~ ~ ~ ~ ~.. .       ",
"      . . {.~ ~ ~ ~ ~ ~ ~ ~ ~ ~ ~ ~ ~ ~ ~ ~ ~ ~ ~ ~ ~ ~ ~ ~ ~ ~ ~ ~ ~ ~ ~ ~ ~ ~ ~ ~ ~ ~ ~ ~ ~ ~ ~ ~ ~ ~ ~ ~ ~ ~ ~ ~ g ]..       ",
"      . . ! ~ ~ ~ ~ ~ ~ ~ ~ ~ ~ ~ ~ ~ ~ ~ ~ ~ ~ ~ ~ ~ ~ ~ ~ ~ ~ ~ ~ ~ ~ ~ ~ ~ ~ ~ ~ ~ ~ ~ ~ ~ ~ ~ ~ ~ ~ ~ ~ ~ ~ ~ ~ ~ ^..       ",
"      . /.~ ~ ~ ~ ~ ~ ~ ~ ~ ~ ~ ~ ~ ~ ~ ~ ~ ~ ~ ~ ~ ~ ~ ~ ~ ~ ~ ~ ~ ~ ~ ~ ~ ~ ~ ~ ~ ~ ~ ~ ~ ~ ~ ~ ~ ~ ~ ~ ~ ~ ~ ~ ~ ~ (.. .     ",
"      . _.~ ~ ~ ~ ~ ~ ~ ~ ~ ~ ~ E :.<.5 ~ ~ ~ ~ ~ ~ ~ ~ ~ ~ ~ ~ ~ ~ ~ ~ ~ ~ ~ ~ ~ ~ ~ ~ ~ ~ ~ ~ ~ ~ ~ ~ ~ ~ ~ ~ ~ ~ ~ { ' .     ",
"    . . [.~ ~ ~ ~ ~ ~ ~ ~ d }.|.( 1.e } ~ ~ ~ ~ ~ ~ ~ ~ ~ ~ ~ ~ ~ ~ ~ ~ ~ ~ ~ ~ ~ ~ ~ ~ ~ ~ ~ (.2.3.~ ~ ~ ~ ~ ~ ~ ~ ~ ~ 4..     ",
"    . . ! ~ ~ ~ ~ ~ ~ 3.5.R 6.7.| 8.9.~ ~ ~ ~ ~ ~ ~ ~ ~ ~ ~ ~ ~ ~ ~ ~ ~ ~ ~ ~ ~ ~ ~ ~ ~ ~ ~ ~ 0.. <.~ ~ ~ ~ ~ ~ ~ ~ ~ ~  ..     ",
"    . . a.~ ~ ~ ~ b.c.1 d.] 4 e.1 . ).~ ~ ~ ~ ~ ~ ~ ~ ~ ~ ~ ~ ~ ~ ~ ~ ~ ~ ~ ~ ~ ~ ~ ~ ~ ~ ~ ~ T . f.~ ~ ~ ~ ~ ~ ~ ~ ~ ~ %..     ",
"    . g.~ ~ ~ ~ ~ A >.h.~ ~ i.' j.g.4 ~ ~ ~ ~ ~ ~ ~ ~ ~ ~ ~ ~ ~ ~ ~ ~ ~ ~ ~ ~ ~ ~ ~ ~ ~ ~ ~ ~ k.. } ~ ~ ~ ~ ~ ~ ~ ~ ~ ~ l..     ",
"    . m.~ ~ ~ ~ ~ ~ ~ ~ ~ ~ n.^ O U ~ ~ ~ ~ ~ ~ ~ ~ ~ ~ ~ ~ ~ ~ ~ ~ ~ ~ ~ ~ ~ ~ ~ ~ ~ ~ ~ ~ ~ o.. p.~ ~ ~ ~ ~ ~ ~ ~ ~ ~ b.. .   ",
"    . q.~ ~ ~ ~ ~ ~ ~ ~ ~ (.H r.$ c ~ ~ ~ ~ ~ ~ ~ ~ ~ ~ ~ ~ ~ ~ ~ ~ ~ ~ ~ ~ ~ ~ ~ ~ ~ ~ ~ ~ j . R D ~ ~ ~ ~ ~ ~ ~ ~ ~ ~ s.. .   ",
"    . @ ~ ~ ~ ~ ~ ~ ~ ~ ~ k.-.~ z t.~ ~ ~ ~ ~ ~ ~ ~ ~ ~ ~ ~ ~ ~ ~ ~ ~ ~ ~ ~ ~ ~ ~ ~ ~ ~ ~ ~ q . c ~ ~ ~ ~ ~ ~ ~ ~ ~ ~ ~ i.. .   ",
"    . c.~ ~ ~ ~ ~ ~ ~ ~ j ( u.~ 4.v.~ ~ ~ ~ ~ ~ ~ ~ ~ ~ ~ ~ ~ ~ ~ ~ ~ ~ ~ ~ ~ ~ ~ ~ ~ ~ ~ ~ w.. ,.~ ~ ~ ~ ~ ~ ~ ~ ~ ~ ~ x.. .   ",
"    . y.~ ~ ~ ~ ~ ~ ~ ~ z.l.~ ~ ) 3 ~ ~ ~ ~ ~ ~ ~ ~ ~ ~ ~ ~ ~ ~ ~ ~ ~ ~ ~ ~ ~ ~ ~ ~ ~ ~ ~ z.7 8.A.~ ~ ~ ~ ~ ~ ~ ~ ~ ~ ~ B..     ",
"    . . 9 ~ ~ ~ ~ ~ ~ ~ ~ ~ ~ ~ C.D.~ ~ ~ ~ ~ ~ ~ ~ ~ ~ ~ ~ ~ ~ ~ ~ ~ ~ ~ ~ ~ ~ ~ ~ ~ ~ ~ E.. F.~ ~ ~ ~ ~ ~ ~ ~ ~ ~ ~ ~ u .     ",
"    . . '.~ ~ ~ ~ ~ ~ ~ ~ ~ ~ ~ :.G.~ ~ ~ ~ ~ ~ ~ ~ ~ ~ ~ ~ ~ ~ ~ ~ ~ ~ ~ ~ ~ ~ ~ ~ ~ ~ H.' . s.~ ~ ~ ~ ~ ~ ~ ~ ~ ~ ~ ~ t..     ",
"    . . } ~ ~ ~ ~ ~ ~ ~ ~ ~ ~ ~ ~ ~ ~ ~ ~ ~ ~ ~ ~ ~ ~ ~ ~ ~ ~ ~ ~ ~ ~ ~ ~ ~ ~ ~ ~ ~ ~ ~ j.. I.~ ~ ~ ~ ~ ~ ~ ~ ~ ~ ~ ~ ~ J..     ",
"      . f ~ ~ ~ ~ ~ ~ ~ ~ ~ ~ ~ ~ ~ ~ ~ ~ ~ ~ ~ ~ ~ ~ ~ ~ ~ ~ ~ ~ ~ ~ ~ ~ ~ ~ ~ ~ ~ ~ K.K ( L.0 ~ ~ ~ ~ ~ ~ ~ ~ ~ ~ ~ [ e .     ",
"      . U ~ ~ ~ ~ ~ ~ ~ ~ ~ ~ ~ ~ ~ ~ ~ ~ ~ ~ ~ ~ ~ ~ ~ ~ ~ ~ ~ ~ ~ ~ ~ ~ ~ ~ ~ ~ ~ H.M.. N.O.P.Q.~ ~ ~ ~ ~ ~ ~ ~ ~ ~ $.. .     ",
"      . . < ~ ~ ~ ~ ~ ~ ~ ~ ~ ~ ~ ~ ~ ~ ~ ~ ~ ~ ~ ~ ~ ~ ~ ~ ~ ~ ~ ~ ~ ~ ~ ~ ~ ~ ~ [ R.. S.T.U.V.W.X.D ~ ~ ~ ~ ~ ~ ~ ~ $ .       ",
"      . . q ~ ~ ~ ~ ~ ~ ~ ~ ~ ~ ~ ~ ~ ~ ~ ~ ~ ~ ~ ~ ~ ~ ~ ~ ~ ~ ~ ~ ~ ~ ~ ~ ~ ~ d Y.. Z.`. +U.U..+++@+~ ~ ~ ~ ~ ~ ~ ~ _ .       ",
"        . #+~ ~ ~ ~ ~ ~ ~ ~ ~ ~ ~ ~ ~ ~ ~ ~ ~ ~ ~ ~ ~ ~ ~ ~ ~ ~ ~ ~ ~ ~ ~ ~ ~ r.$+. %+&+*+=+-+U.U.-+;+A ~ ~ ~ ~ ~ ~ >+. .       ",
"        . K N ~ ~ ~ ~ ~ ~ ~ ~ ~ ~ ~ ~ ~ ~ ~ ~ ~ ~ ~ ~ ~ ~ ~ ~ ~ ~ ~ ~ ~ ~ ~ ,++ . '+)+U.U.!+~+U.U.U.{+]+~ ~ ~ ~ ~ ~ 8 . .       ",
"        . . ; ~ ~ ~ ~ ~ ~ ~ ~ ~ ~ ~ ~ ~ ~ ~ ~ ~ ~ ~ ~ ~ ~ ~ ~ ~ ~ ~ ~ ~ E ^+. . /+(+_+U.U. +:+<+U.U.[+}+|+~ ~ ~ ~ H.' (         ",
"          ( 1 >+~ ~ ~ ~ ~ ~ ~ ~ ~ ~ ~ ~ ~ ~ ~ ~ ~ ~ ~ ~ ~ ~ ~ ~ ~ ~ i.j.g.. ' v.1+b.2+3+U.U.4+5+6+U.U.7+E ~ ~ ~ ~ t.. .         ",
"            . 8+~ ~ ~ ~ ~ ~ ~ ~ ~ ~ ~ ~ ~ ~ ~ ~ ~ ~ ~ ~ ~ a.9+0+a+o.. . ( ..b+~ ~ ~ (.P.c+U.U.d+c+U.U.7+E ~ ~ ~ e+1 (           ",
"            . . f+~ ~ ~ ~ ~ ~ ~ ~ ~ ~ ~ ~ ~ ~ ~ ~ ~ ~  .7 . . . . . g+@.h+~ ~ ~ ~ ~ ~ i+j+6+U.U.U.U.U.k+< ~ ~ ~ T .             ",
"              . U { ~ ~ ~ ~ ~ ~ ~ ~ ~ ~ ~ ~ ~ ~ ~ ~ ~ l+. e w > a+f+g ~ ~ ~ ~ ~ ~ ~ ~ m m+n+U.U.U.U.o+p+4 ~ ~ b.( (             ",
"              . . y ~ ~ ~ ~ ~ ~ ~ ~ ~ ~ ~ ~ ~ ~ ~ ~ ~ G.d ~ ~ ~ ~ ~ ~ ~ ~ ~ ~ ~ ~ ~ ~ ~ |+q+r+s+_+t+u+v+~ ~ ! y..               ",
"                . . w+~ ~ ~ ~ ~ ~ ~ ~ ~ ~ ~ ~ ~ ~ ~ ~ ~ ~ ~ ~ ~ ~ ~ ~ ~ ~ ~ ~ ~ ~ ~ ~ ~ ~ a.x+y+z+v+A+{ ~ B+c.. .               ",
"                  ( 8.(.~ ~ ~ ~ ~ ~ ~ ~ ~ ~ ~ ~ ~ ~ ~ ~ ~ ~ ~ ~ ~ ~ ~ ~ ~ ~ ~ ~ ~ ~ ~ ~ ~ ~ ~ ~ ~ ~ ~ ~ [ 4.. .                 ",
"                    . R #.~ ~ ~ ~ ~ ~ ~ ~ ~ ~ ~ ~ ~ ~ ~ ~ ~ ~ ~ ~ ~ ~ ~ ~ ~ ~ ~ ~ ~ ~ ~ ~ ~ ~ ~ ~ ~ ~ m C+. .                   ",
"                    . . g.h ~ ~ ~ ~ ~ ~ ~ ~ ~ ~ ~ ~ ~ ~ ~ ~ ~ ~ ~ ~ ~ ~ ~ ~ ~ ~ ~ ~ ~ ~ ~ ~ ~ ~ ~ ~ 9 D+. (                     ",
"                        . . 8 g ~ ~ ~ ~ ~ ~ ~ ~ ~ ~ ~ ~ ~ ~ ~ ~ ~ ~ ~ ~ ~ ~ ~ ~ ~ ~ ~ ~ ~ ~ ~ ~ ~ E+k . .                       ",
"                          ( . F+v ~ ~ ~ ~ ~ ~ ~ ~ ~ ~ ~ ~ ~ ~ ~ ~ ~ ~ ~ ~ ~ ~ ~ ~ ~ ~ ~ ~ ~ ~ ~ $./ . .                         ",
"                            . . + ,.m ~ ~ ~ ~ ~ ~ ~ ~ ~ ~ ~ ~ ~ ~ ~ ~ ~ ~ ~ ~ ~ ~ ~ ~ ~ ~ ~ t ^ 8.. .                           ",
"                              . . . w G+~ ~ ~ ~ ~ ~ ~ ~ ~ ~ ~ ~ ~ ~ ~ ~ ~ ~ ~ ~ ~ ~ ~ ~ H+%.7 . (                               ",
"                                  . . . 4.A m ~ ~ ~ ~ ~ ~ ~ ~ ~ ~ ~ ~ ~ ~ ~ ~ ~ ~ ~ a.b I+. . .                                 ",
"                                      . . . 6. .x.J+~ ~ ~ ~ ~ ~ ~ ~ ~ ~ ~ ~ ~ < K+|.L+. . .                                     ",
"                                          . . . . y.> -.M+:.i 5 N N+(.A+O+=., . . . . .                                         ",
"                                                . . . . . . . . . . . . . . . . .                                               ",
"                                                          . . . . . . .                                                         ",
"                                                                                                                                "};
